<svg version="1.1" id="Layer_1" xmlns="http://www.w3.org/2000/svg" xmlns:xlink="http://www.w3.org/1999/xlink" x="0px" y="0px" viewBox="0 0 48 48" enable-background="new 0 0 48 48" xml:space="preserve">
<polygon fill="#90CAF9" points="34,41 6,41 6,3 25,3 34,12 "></polygon>
<polygon fill="#E1F5FE" points="32.5,13 24,13 24,4.5 "></polygon>
<path fill="#1976D2" d="M22,12v2h-4v-2H22z M18,6v2h4V6H18z M18,9v2h4V9H18z M18,15v2h4v-2H18z M18,3v2h4V3H18z"></path>
<path fill="#3F51B5" d="M22,18h-4c0,3-2,6-2,8c0,2.2,1.8,4,4,4s4-1.8,4-4C24,24,22,21,22,18z M20,28c-1.1,0-2-0.9-2-2s0.9-2,2-2
	s2,0.9,2,2S21.1,28,20,28z"></path>
<polygon fill="#F44336" points="42,45 25,45 25,28 39,28 42,31 "></polygon>
<path fill="#FFFFFF" d="M39.2,36H27.8c-0.4,0-0.8,0.4-0.8,0.8v5.4c0,0.4,0.4,0.8,0.8,0.8h11.4c0.4,0,0.8-0.4,0.8-0.8v-5.4
	C40,36.4,39.6,36,39.2,36z"></path>
<path fill="#C62828" d="M27,28v4.2c0,0.4,0.4,0.8,0.8,0.8h9.4c0.4,0,0.8-0.4,0.8-0.8V28H27z"></path>
<path fill="#B0BEC5" d="M31,28v4.2c0,0.4,0.4,0.8,0.8,0.8h5.4c0.4,0,0.8-0.4,0.8-0.8V28H31z"></path>
<rect x="34" y="29" fill="#263238" width="2" height="3"></rect>
<path fill="#CFD8DC" d="M29,38h9v1h-9V38z M29,41h9v-1h-9V41z"></path>
</svg>