<svg version="1.1" id="Слой_1" xmlns="http://www.w3.org/2000/svg" xmlns:xlink="http://www.w3.org/1999/xlink" x="0px" y="0px" width="48px" height="48px" viewBox="0 0 48 48" enable-background="new 0 0 48 48" xml:space="preserve">
<path fill="#78909C" d="M5,29v10c0,2.209,1.791,4,4,4h28c2.209,0,4-1.791,4-4V29H5z"></path>
<path fill="#455A64" d="M41,29c0,2.209-1.791,4-4,4H9c-2.209,0-4-1.791-4-4l3-12c0.219-2.094,1.791-4,4-4h22c2.209,0,3.688,1.75,4,4
	L41,29z"></path>
<circle fill="#64DD17" cx="34" cy="38" r="2"></circle>
<g>
	<ellipse fill="#BBDEFB" cx="24.525" cy="10.384" rx="5.525" ry="5.384"></ellipse>
	<ellipse fill="#BBDEFB" cx="25.75" cy="19.566" rx="4.55" ry="4.433"></ellipse>
	<ellipse fill="#BBDEFB" cx="19.55" cy="15.434" rx="4.55" ry="4.434"></ellipse>
	<ellipse fill="#BBDEFB" cx="38.1" cy="15.134" rx="3.9" ry="3.801"></ellipse>
	<ellipse fill="#BBDEFB" cx="32.9" cy="18.2" rx="3.9" ry="3.801"></ellipse>
	<ellipse fill="#BBDEFB" cx="33.225" cy="12.116" rx="4.225" ry="4.116"></ellipse>
	<ellipse fill="#BBDEFB" cx="28.45" cy="14.566" rx="4.55" ry="4.434"></ellipse>
</g>
</svg>