<svg version="1.1" id="Слой_1" xmlns="http://www.w3.org/2000/svg" xmlns:xlink="http://www.w3.org/1999/xlink" x="0px" y="0px" width="48px" height="48px" viewBox="0 0 48 48" enable-background="new 0 0 48 48" xml:space="preserve">
<path fill="#795548" d="M24,4c0,0-7.994,8-15.989,8c0,0-0.999,23,16.162,32c16.815-9,15.816-32,15.816-32c-0.001,0-0.001,0-0.002,0
	C30.995,12,24,4,24,4L24,4z"></path>
<path fill="#FFC107" d="M35.874,15.563c-5.133-1.082-9.356-3.956-11.979-6.156c-2.7,2.139-6.965,4.965-11.768,6.096
	c0.462,5.778,2.581,17.639,12.023,23.848C33.338,33.16,35.418,21.367,35.874,15.563z"></path>
<path fill="#D39305" d="M23.895,9.406c-2.7,2.139-6.965,4.965-11.768,6.096c0.068,0.847,0.178,1.835,0.334,2.906
	c4.664-1.181,8.796-3.914,11.433-6.002c2.565,2.152,6.669,4.938,11.65,6.071c0.154-1.072,0.262-2.063,0.329-2.915
	C30.741,14.48,26.518,11.606,23.895,9.406z"></path>
<g>
	<circle fill="#FFEB3B" cx="24" cy="7" r="1"></circle>
	<circle fill="#FFEB3B" cx="38" cy="14" r="1"></circle>
	<circle fill="#FFEB3B" cx="24" cy="41" r="1"></circle>
	<circle fill="#FFEB3B" cx="10" cy="14" r="1"></circle>
	<circle fill="#FFEB3B" cx="13" cy="29" r="1"></circle>
	<circle fill="#FFEB3B" cx="35" cy="29" r="1"></circle>
</g>
</svg>