<svg version="1.1" id="Слой_1" xmlns="http://www.w3.org/2000/svg" xmlns:xlink="http://www.w3.org/1999/xlink" x="0px" y="0px" width="48px" height="48px" viewBox="0 0 48 48" enable-background="new 0 0 48 48" xml:space="preserve">
<path fill="#F50057" d="M10,18c0-7.731,6.268-14,14-14c7.732,0,14,6.269,14,14c0,7.732-14,26-14,26S10,25.732,10,18z"></path>
<g>
	<path fill="#FCE4EC" d="M21.898,23h-2.01v-9.953h2.01V23z"></path>
	<path fill="#FCE4EC" d="M25.597,19.5V23h-2.01v-9.953h3.391c0.984,0,1.77,0.306,2.354,0.916c0.586,0.61,0.879,1.403,0.879,2.379
		s-0.289,1.745-0.868,2.311S27.962,19.5,26.937,19.5H25.597z M25.597,17.825h1.381c0.383,0,0.679-0.125,0.889-0.376
		s0.314-0.615,0.314-1.094c0-0.497-0.106-0.893-0.321-1.186c-0.215-0.295-0.502-0.443-0.861-0.448h-1.401V17.825z"></path>
</g>
</svg>