<svg version="1.1" id="Слой_1" xmlns="http://www.w3.org/2000/svg" xmlns:xlink="http://www.w3.org/1999/xlink" x="0px" y="0px" width="48px" height="48px" viewBox="0 0 48 48" enable-background="new 0 0 48 48" xml:space="preserve">
<g>
	<polygon fill="#BBDEFB" points="15,42 6,37 6,26 15,31 	"></polygon>
	<polygon fill="#BBDEFB" points="33,42 24,37 24,26 33,31 	"></polygon>
	<polygon fill="#BBDEFB" points="24,26 15,21 15,10 24,15 	"></polygon>
</g>
<g>
	<polygon fill="#2196F3" points="15,42 24,37 24,26 15,31 	"></polygon>
	<polygon fill="#2196F3" points="33,42 42,37 42,26 33,31 	"></polygon>
	<polygon fill="#2196F3" points="24,26 33,21 33,10 24,15 	"></polygon>
</g>
<g>
	<polygon fill="#90CAF9" points="6,26 15,21 24,26 15,31 	"></polygon>
	<polygon fill="#90CAF9" points="24,26 33,21 42,26 33,31 	"></polygon>
	<polygon fill="#90CAF9" points="15,10 24,5 33,10 24,15 	"></polygon>
</g>
</svg>