<svg version="1.1" id="Слой_1" xmlns="http://www.w3.org/2000/svg" xmlns:xlink="http://www.w3.org/1999/xlink" x="0px" y="0px" width="48px" height="48px" viewBox="0 0 48 48" enable-background="new 0 0 48 48" xml:space="preserve">
<g>
	<path fill="#D1C4E9" d="M41,4H7C5.895,4,5,4.895,5,6v8c0,1.105,0.895,2,2,2h34c1.105,0,2-0.895,2-2V6C43,4.895,42.105,4,41,4"></path>
	<path fill="#D1C4E9" d="M41,18H7c-1.105,0-2,0.895-2,2v8c0,1.105,0.895,2,2,2h34c1.105,0,2-0.895,2-2v-8C43,18.895,42.105,18,41,18
		"></path>
	<path fill="#D1C4E9" d="M41,32H7c-1.105,0-2,0.895-2,2v8c0,1.105,0.895,2,2,2h34c1.105,0,2-0.895,2-2v-8C43,32.895,42.105,32,41,32
		"></path>
	<circle fill="#D1C4E9" cx="24" cy="24" r="16"></circle>
</g>
<g>
	<path fill="#512DA8" d="M18.004,26.389c0-0.405-0.104-0.712-0.311-0.919c-0.208-0.208-0.584-0.423-1.131-0.646
		c-0.998-0.378-1.716-0.821-2.153-1.33c-0.438-0.508-0.656-1.108-0.656-1.801c0-0.839,0.297-1.512,0.892-2.02
		c0.595-0.509,1.35-0.763,2.266-0.763c0.611,0,1.155,0.129,1.634,0.386c0.479,0.258,0.847,0.621,1.104,1.091s0.386,1.003,0.386,1.6
		h-2.003c0-0.465-0.099-0.819-0.297-1.063c-0.198-0.243-0.484-0.365-0.858-0.365c-0.351,0-0.625,0.104-0.82,0.311
		c-0.196,0.208-0.294,0.487-0.294,0.838c0,0.273,0.109,0.521,0.328,0.742c0.219,0.221,0.606,0.449,1.162,0.687
		c0.971,0.351,1.676,0.781,2.116,1.292s0.66,1.16,0.66,1.948c0,0.866-0.276,1.543-0.827,2.03s-1.301,0.731-2.249,0.731
		c-0.643,0-1.228-0.132-1.757-0.396s-0.942-0.643-1.241-1.135s-0.448-1.073-0.448-1.743h2.017c0,0.574,0.112,0.991,0.335,1.251
		s0.588,0.39,1.094,0.39C17.653,27.503,18.004,27.132,18.004,26.389z"></path>
	<path fill="#512DA8" d="M28.36,24.796c0,1.646-0.444,2.842-1.333,3.589l1.374,1.23l-1.265,1.162l-1.832-1.675l-0.526,0.034
		c-1.125,0-2.006-0.382-2.642-1.146c-0.636-0.763-0.956-1.819-0.96-3.168v-1.559c0-1.367,0.317-2.435,0.95-3.203
		c0.633-0.768,1.513-1.151,2.639-1.151c1.099,0,1.966,0.369,2.604,1.107s0.969,1.775,0.991,3.11V24.796z M26.344,23.251
		c0-0.907-0.13-1.577-0.39-2.01s-0.656-0.649-1.189-0.649s-0.927,0.211-1.183,0.632c-0.255,0.422-0.387,1.063-0.396,1.925v1.647
		c0,0.911,0.131,1.584,0.393,2.017s0.662,0.649,1.2,0.649c0.524,0,0.915-0.215,1.173-0.646c0.257-0.43,0.389-1.088,0.393-1.972
		V23.251z"></path>
	<path fill="#512DA8" d="M31.819,27.332h3.527V29H29.81v-9.953h2.01V27.332z"></path>
</g>
</svg>