<svg version="1.1" id="Слой_1" xmlns="http://www.w3.org/2000/svg" xmlns:xlink="http://www.w3.org/1999/xlink" x="0px" y="0px" width="48px" height="48px" viewBox="0 0 48 48" enable-background="new 0 0 48 48" xml:space="preserve">
<path fill="#388E3C" d="M9,15v23h4v-3c0-0.553,0.448-1,1-1h9c0.552,0,1,0.447,1,1v3h21V15H9z"></path>
<g>
	<rect x="26" y="34" fill="#FDD835" width="2" height="4"></rect>
	<rect x="29" y="34" fill="#FDD835" width="2" height="4"></rect>
	<rect x="32" y="34" fill="#FDD835" width="2" height="4"></rect>
	<rect x="35" y="34" fill="#FDD835" width="2" height="4"></rect>
	<rect x="41" y="34" fill="#FDD835" width="2" height="4"></rect>
</g>
<g>
	<path fill="none" stroke="#B0BEC5" stroke-width="2" stroke-linejoin="round" d="M3,7h4c0,0,2,0,2,2s0,33,0,33"></path>
	<rect x="10" y="23" fill="#B0BEC5" width="7" height="7"></rect>
</g>
<g>
	<circle fill="#1B5E20" cx="22" cy="22" r="2"></circle>
	<rect x="17" y="27" fill="#1B5E20" width="13" height="2"></rect>
	<rect x="23" y="21" fill="#1B5E20" width="6" height="2"></rect>
</g>
<g>
	<rect x="31" y="19" fill="#ECEFF1" width="2" height="12"></rect>
	<rect x="34" y="19" fill="#ECEFF1" width="2" height="12"></rect>
	<rect x="37" y="19" fill="#ECEFF1" width="2" height="12"></rect>
	<rect x="29" y="27" fill="#ECEFF1" width="12" height="2"></rect>
	<rect x="29" y="24" fill="#ECEFF1" width="12" height="2"></rect>
	<rect x="29" y="21" fill="#ECEFF1" width="12" height="2"></rect>
</g>
<rect x="30" y="20" fill="#37474F" width="10" height="10"></rect>
</svg>