<svg version="1.0" id="Layer_1" xmlns="http://www.w3.org/2000/svg" xmlns:xlink="http://www.w3.org/1999/xlink" x="0px" y="0px" viewBox="0 0 48 48" enable-background="new 0 0 48 48" xml:space="preserve">
<g>
	<rect x="23" y="5" fill="#37474F" width="2" height="36"></rect>
	
		<rect x="20.5" y="31.4" transform="matrix(0.7071 0.7071 -0.7071 0.7071 33.523 -3.9211)" fill="#37474F" width="2" height="14.2"></rect>
	
		<rect x="25.5" y="31.4" transform="matrix(-0.7071 0.7071 -0.7071 -0.7071 72.4865 46.9955)" fill="#37474F" width="2" height="14.2"></rect>
</g>
<rect x="4" y="8" fill="#CFD8DC" width="40" height="28"></rect>
<g>
	<rect x="3" y="7" fill="#607D8B" width="42" height="4"></rect>
	<rect x="3" y="35" fill="#607D8B" width="42" height="2"></rect>
	<circle fill="#607D8B" cx="31.5" cy="43.5" r="1.5"></circle>
	<circle fill="#607D8B" cx="16.5" cy="43.5" r="1.5"></circle>
</g>
<g>
	<polygon fill="#C51162" points="31.9,18.9 26,24.9 20,18.9 11.9,26.9 14.1,29.1 20,23.1 26,29.1 34.1,21.1 	"></polygon>
	<polygon fill="#C51162" points="36,24 29,17 36,17 	"></polygon>
</g>
</svg>