<svg version="1.1" id="Слой_1" xmlns="http://www.w3.org/2000/svg" xmlns:xlink="http://www.w3.org/1999/xlink" x="0px" y="0px" width="48px" height="48px" viewBox="0 0 48 48" enable-background="new 0 0 48 48" xml:space="preserve">
<circle fill="#FFCA28" cx="25" cy="24" r="19"></circle>
<g>
	<circle fill="#E5A80E" cx="21" cy="16" r="4"></circle>
	<circle fill="#E5A80E" cx="35" cy="16" r="4"></circle>
</g>
<g>
	<circle fill="#FFFFFF" cx="21" cy="18" r="4"></circle>
	<circle fill="#FFFFFF" cx="35" cy="18" r="4"></circle>
</g>
<g>
	<circle fill="#1976D2" cx="22" cy="17" r="2"></circle>
	<circle fill="#1976D2" cx="36" cy="17" r="2"></circle>
</g>
<path fill="none" stroke="#B76C09" stroke-width="2" d="M14,33.853c0,0,16-7.853,22,0"></path>
<g>
	<path fill="#F44336" d="M9.733,19.82c-0.296-1.091-0.398-1.997-0.307-2.715c0.092-0.719,0.408-1.489,0.949-2.31
		c0.541-0.818,0.875-1.458,1.005-1.916c0.128-0.458,0.134-0.904,0.015-1.342c-0.357-1.317-1.149-1.81-2.375-1.477
		c-0.581,0.157-0.999,0.461-1.251,0.91c-0.253,0.45-0.304,0.989-0.15,1.617l-3.417,0.927c-0.388-1.491-0.219-2.787,0.506-3.889
		c0.727-1.099,1.914-1.873,3.564-2.321c1.666-0.452,3.066-0.403,4.202,0.147c1.136,0.549,1.901,1.55,2.296,3.007
		c0.18,0.663,0.201,1.328,0.062,1.997c-0.139,0.67-0.484,1.464-1.036,2.384l-0.71,1.158c-0.443,0.731-0.604,1.489-0.483,2.277
		l0.147,0.726L9.733,19.82z M10.362,23.49c-0.141-0.52-0.078-0.996,0.187-1.432c0.267-0.434,0.678-0.728,1.235-0.879
		s1.061-0.105,1.51,0.134c0.45,0.242,0.745,0.622,0.886,1.141c0.139,0.512,0.079,0.983-0.181,1.41
		c-0.258,0.429-0.675,0.722-1.248,0.877c-0.574,0.155-1.081,0.113-1.521-0.125C10.791,24.378,10.501,24.002,10.362,23.49z"></path>
</g>
</svg>