<svg version="1.1" id="Слой_1" xmlns="http://www.w3.org/2000/svg" xmlns:xlink="http://www.w3.org/1999/xlink" x="0px" y="0px" width="48px" height="48px" viewBox="0 0 48 48" enable-background="new 0 0 48 48" xml:space="preserve">
<g>
	<rect x="8" y="37" fill="#26A69A" width="3" height="3"></rect>
	<rect x="11" y="19" fill="#26A69A" width="3" height="3"></rect>
	<rect x="14" y="22" fill="#26A69A" width="3" height="6"></rect>
	<rect x="17" y="28" fill="#26A69A" width="3" height="3"></rect>
	<rect x="20" y="31" fill="#26A69A" width="6" height="3"></rect>
	<rect x="26" y="34" fill="#26A69A" width="3" height="3"></rect>
</g>
<g>
	<rect x="11" y="31" fill="#37474F" width="3" height="3"></rect>
	<rect x="14" y="34" fill="#37474F" width="3" height="3"></rect>
</g>
<g>
	<rect x="14" y="28" fill="#004D40" width="3" height="3"></rect>
	<polygon fill="#004D40" points="8,16 8,22 11,22 11,19 14,19 14,16 	"></polygon>
	<rect x="14" y="19" fill="#004D40" width="3" height="3"></rect>
	<rect x="17" y="22" fill="#004D40" width="3" height="6"></rect>
	<rect x="11" y="22" fill="#004D40" width="3" height="6"></rect>
	<rect x="20" y="28" fill="#004D40" width="6" height="3"></rect>
	<rect x="20" y="34" fill="#004D40" width="6" height="3"></rect>
	<rect x="26" y="31" fill="#004D40" width="3" height="3"></rect>
	<polygon fill="#004D40" points="29,34 29,37 26,37 26,40 32,40 32,34 	"></polygon>
	<rect x="17" y="31" fill="#004D40" width="3" height="3"></rect>
	<polygon fill="#004D40" points="11,37 11,40 8,40 8,37 11,37 11,34 5,34 5,43 14,43 14,37 	"></polygon>
</g>
<polygon fill="#4DD0E1" points="20,28 20,22 23,22 23,19 26,19 26,16 29,16 29,13 32,13 32,10 35,10 35,7 41,7 41,13 38,13 38,16 
	35,16 35,19 32,19 32,22 29,22 29,25 26,25 26,28 "></polygon>
<g>
	<rect x="11" y="34" fill="#B76648" width="3" height="3"></rect>
	<rect x="14" y="31" fill="#B76648" width="3" height="3"></rect>
</g>
<g>
	<rect x="20" y="19" fill="#00BCD4" width="3" height="3"></rect>
	<rect x="26" y="13" fill="#00BCD4" width="3" height="3"></rect>
	<rect x="23" y="16" fill="#00BCD4" width="3" height="3"></rect>
	<rect x="29" y="10" fill="#00BCD4" width="3" height="3"></rect>
	<rect x="32" y="7" fill="#00BCD4" width="3" height="3"></rect>
	<polygon fill="#00BCD4" points="35,4 35,7 41,7 41,13 44,13 44,4 	"></polygon>
	<rect x="26" y="25" fill="#00BCD4" width="3" height="3"></rect>
	<rect x="32" y="19" fill="#00BCD4" width="3" height="3"></rect>
	<rect x="29" y="22" fill="#00BCD4" width="3" height="3"></rect>
	<rect x="35" y="16" fill="#00BCD4" width="3" height="3"></rect>
	<rect x="38" y="13" fill="#00BCD4" width="3" height="3"></rect>
	<rect x="20" y="25" fill="#00BCD4" width="3" height="3"></rect>
	<rect x="26" y="19" fill="#00BCD4" width="3" height="3"></rect>
	<rect x="23" y="22" fill="#00BCD4" width="3" height="3"></rect>
	<rect x="29" y="16" fill="#00BCD4" width="3" height="3"></rect>
	<rect x="35" y="10" fill="#00BCD4" width="3" height="3"></rect>
	<rect x="32" y="13" fill="#00BCD4" width="3" height="3"></rect>
	<rect x="38" y="7" fill="#00BCD4" width="3" height="3"></rect>
</g>
</svg>