<svg version="1.1" id="Слой_1" xmlns="http://www.w3.org/2000/svg" xmlns:xlink="http://www.w3.org/1999/xlink" x="0px" y="0px" width="48px" height="48px" viewBox="0 0 48 48" enable-background="new 0 0 48 48" xml:space="preserve">
<path fill="#DCEDC8" d="M37.436,11.564C33.997,8.127,29.247,6,24,6v19L37.436,11.564z"></path>
<path fill="#FFFFFF" d="M39,25c0,8.282-6.715,15-15,15S9,33.282,9,25c0-8.284,6.715-15,15-15S39,16.716,39,25"></path>
<g>
	<polygon points="30,16 28.235,15.058 23.118,24.528 24.882,25.47 	"></polygon>
	<rect x="25.418" y="23.928" transform="matrix(-0.7069 0.7073 -0.7073 -0.7069 64.8939 28.2817)" width="2.337" height="7.317"></rect>
	<path d="M26,25c0,1.104-0.895,2-2,2c-1.105,0-2-0.896-2-2c0-1.106,0.895-2,2-2C25.105,23,26,23.894,26,25"></path>
</g>
<path fill="#8BC34A" d="M25,25c0,0.551-0.448,1-1,1s-1-0.449-1-1c0-0.553,0.448-1,1-1S25,24.447,25,25"></path>
<g>
	<polygon fill="#7CB342" points="22,3 22,13 28,8 	"></polygon>
	<path fill="#7CB342" d="M34.602,14.398C37.318,17.114,39,20.864,39,25c0,8.271-6.729,15-15,15c-8.271,0-15-6.729-15-15
		s6.729-15,15-15V6C13.523,6,5,14.523,5,25s8.523,19,19,19s19-8.523,19-19c0-5.238-2.131-9.988-5.571-13.429L34.602,14.398z"></path>
</g>
</svg>