<svg version="1.1" id="Layer_1" xmlns="http://www.w3.org/2000/svg" xmlns:xlink="http://www.w3.org/1999/xlink" x="0px" y="0px" viewBox="0 0 48 48" style="enable-background:new 0 0 48 48;" xml:space="preserve">
<g>
	<path style="fill:#EF8D3C;" d="M38,13.5c0,0.828-0.672,1.5-1.5,1.5c-0.829,0-1.5-0.672-1.5-1.5s0.671-1.5,1.5-1.5
		C37.328,12,38,12.672,38,13.5"></path>
	<path style="fill:#EF8D3C;" d="M27,13.5c0,0.828-0.672,1.5-1.5,1.5S24,14.328,24,13.5s0.672-1.5,1.5-1.5S27,12.672,27,13.5"></path>
</g>
<path style="fill:#3F51B5;" d="M42.024,30.02C42.024,22.423,34,21,34,21l-2.976,0.712L28,21c0,0-7.961,1.393-7.975,9H20v6h22v-5.98
	H42.024z"></path>
<path style="fill:#EF8D3C;" d="M31,24c-3,0-3-3-3-3v-4h6v4C34,21,34,24,31,24z"></path>
<path style="fill:#1A237E;" d="M31,26c3.317,0,4.719-2.443,4.958-4.396C34.833,21.151,34,21,34,21s0,3-3,3s-3-3-3-3
	s-0.834,0.15-1.958,0.603C26.281,23.557,27.683,26,31,26z"></path>
<path style="fill:#FFAA45;" d="M37,9.154c0-5.039-12-3.281-12,0v5.203c0,3.278,2.685,5.94,6,5.94c3.314,0,6-2.662,6-5.94V9.154z"></path>
<path style="fill:#424242;" d="M31,3c-4.253,0-7,3.773-7,7.15V12l2,2v-3l8-3l2,2v4l2-2v-0.958c0-2.816-0.727-5.952-4.2-6.643
	L33.099,3H31z"></path>
<g>
	<path style="fill:#FFA726;" d="M22,19.5c0,0.828-0.672,1.5-1.5,1.5c-0.829,0-1.5-0.672-1.5-1.5s0.671-1.5,1.5-1.5
		C21.328,18,22,18.672,22,19.5"></path>
	<path style="fill:#FFA726;" d="M11,19.5c0,0.828-0.672,1.5-1.5,1.5C8.672,21,8,20.328,8,19.5S8.672,18,9.5,18
		C10.328,18,11,18.672,11,19.5"></path>
</g>
<path style="fill:#4FC3F7;" d="M26.024,36.02C26.024,28.423,18,27,18,27l-2.976,0.712L12,27c0,0-7.961,1.393-7.975,9H4v2h22v-1.98
	H26.024z"></path>
<path style="fill:#FF9800;" d="M15,30c-3,0-3-3-3-3v-4h6v4C18,27,18,30,15,30z"></path>
<path style="fill:#01579B;" d="M15,32c3.317,0,4.719-2.443,4.958-4.396C18.833,27.151,18,27,18,27s0,3-3,3s-3-3-3-3
	s-0.834,0.15-1.958,0.603C10.281,29.557,11.683,32,15,32z"></path>
<g>
	<path style="fill:#FFB74D;" d="M21,15.154c0-5.039-12-3.281-12,0v5.203c0,3.278,2.685,5.94,6,5.94c3.314,0,6-2.662,6-5.94V15.154z"></path>
	<path style="fill:#FFB74D;" d="M21,15.154c0-5.039-12-3.281-12,0v5.203c0,3.278,2.685,5.94,6,5.94c3.314,0,6-2.662,6-5.94V15.154z"></path>
</g>
<path style="fill:#6D4C41;" d="M15,9c-4.253,0-7,3.773-7,7.15V18l2,2v-3l8-3l2,2v4l2-2v-0.958c0-2.816-0.727-5.952-4.2-6.643L17,9
	H15z"></path>
<path style="fill:#784719;" d="M11.5,19.25c0-0.413,0.336-0.75,0.75-0.75c0.414,0,0.75,0.337,0.75,0.75S12.664,20,12.25,20
	C11.836,20,11.5,19.663,11.5,19.25 M17,19.25c0,0.413,0.336,0.75,0.75,0.75c0.414,0,0.75-0.337,0.75-0.75s-0.336-0.75-0.75-0.75
	C17.336,18.5,17,18.837,17,19.25"></path>
<path style="fill:#784719;" d="M27.5,13.25c0-0.413,0.336-0.75,0.75-0.75c0.414,0,0.75,0.337,0.75,0.75S28.664,14,28.25,14
	C27.836,14,27.5,13.663,27.5,13.25 M33,13.25c0,0.413,0.336,0.75,0.75,0.75s0.75-0.337,0.75-0.75s-0.336-0.75-0.75-0.75
	S33,12.837,33,13.25"></path>
<path style="fill:#43A047;" d="M44,35c0,5.523-4.478,10-10,10c-5.523,0-10-4.477-10-10s4.477-10,10-10C39.522,25,44,29.477,44,35"></path>
<g>
	<rect x="32" y="29" style="fill:#FFFFFF;" width="4" height="12"></rect>
	<rect x="28" y="33" style="fill:#FFFFFF;" width="12" height="4"></rect>
</g>
</svg>