<svg version="1.1" id="Слой_1" xmlns="http://www.w3.org/2000/svg" xmlns:xlink="http://www.w3.org/1999/xlink" x="0px" y="0px" width="48px" height="48px" viewBox="0 0 48 48" enable-background="new 0 0 48 48" xml:space="preserve">
<rect x="6" y="8" fill="#546E7A" width="36" height="26"></rect>
<rect x="8" y="10" fill="#FFFFFF" width="32" height="21"></rect>
<g>
	<rect x="21" y="34" fill="#455A64" width="6" height="3"></rect>
	<path fill="#455A64" d="M33,37c-2,0-16,0-18,0s-2,2-2,2v1h22v-1C35,39,35,37,33,37z"></path>
</g>
<path fill="#3AB64B" d="M29.996,16c0,0,0.375,8.625-5.932,12c-6.436-3.375-6.061-12-6.061-12C22,16,24,13,24,13S26,16,29.996,16z"></path>
</svg>